<?xml version="1.0" encoding="utf-8"?>
<!-- Uploaded to: SVG Repo, www.svgrepo.com, Generator: SVG Repo Mixer Tools -->
<svg fill="#000000" height="800px" width="800px" version="1.1" id="Layer_1" xmlns="http://www.w3.org/2000/svg" xmlns:xlink="http://www.w3.org/1999/xlink" 
	 viewBox="0 0 64 64" enable-background="new 0 0 64 64" xml:space="preserve">
<g id="Checkbox-checked">
	<path d="M17.4305,23.4424305c-0.2742004-0.5039997-0.9062004-0.6914997-1.4091988-0.4172993
		c-0.5050011,0.2740993-0.6915007,0.9050999-0.4173012,1.4090996l15.606699,28.710701
		c0.1825008,0.335598,0.5323009,0.5433006,0.9133015,0.5433006c0.0009995,0,0.0019989,0,0.0019989,0
		c0.382-0.0009995,0.7327995-0.210701,0.9132004-0.5474014L60.7841988,1.5316312
		c0.2722015-0.505,0.0826988-1.1359999-0.4232979-1.4071c-0.5030022-0.2722-1.1350021-0.0837-1.4071999,0.4233
		L32.1189003,50.4636307L17.4305,23.4424305z"/>
	<path d="M61.9333,17.0416317c-0.5685005,0-1.0291023,0.4606991-1.0291023,1.0291996v29.9333
		c0,7.6850014-6.2525902,13.9375-13.9374962,13.9375H17.0333004c-7.6849003,0-13.9375-6.2524986-13.9375-13.9375v-29.9333
		c0-7.6850004,6.2525997-13.9375,13.9375-13.9375h29.9334011c0.5684967,0,1.0290985-0.4607,1.0290985-1.0292001
		s-0.4606018-1.0290999-1.0290985-1.0290999H17.0333004c-8.8198996,0-15.9958,7.1758003-15.9958,15.9958v29.9333
		c0,8.8199997,7.1759,15.9958992,15.9958,15.9958992h29.9334011c8.8199043,0,15.9957962-7.1758995,15.9957962-15.9958992v-29.9333
		C62.9624977,17.5023308,62.5018997,17.0416317,61.9333,17.0416317z"/>
</g>
</svg>