<svg xmlns="http://www.w3.org/2000/svg" viewBox="0 0 24 24"><defs><style>.a{fill:#f8de40;}.b{fill:#864e20;}.c{fill:#e7c930;}.d{fill:#fff;}.e{fill:#e6e7e8;}</style></defs><rect class="a" x="1" y="1" width="22" height="22" rx="7.656"/><path class="b" d="M8.907,9.844a.182.182,0,0,1-.331.1,2.016,2.016,0,0,0-.569-.567,1.731,1.731,0,0,0-1.915,0,2.016,2.016,0,0,0-.571.569.182.182,0,0,1-.331-.1,1.632,1.632,0,0,1,.346-1.023,1.927,1.927,0,0,1,3.026,0A1.64,1.64,0,0,1,8.907,9.844Z"/><path class="b" d="M18.81,9.844a.182.182,0,0,1-.331.1,2.026,2.026,0,0,0-.568-.567,1.732,1.732,0,0,0-1.916,0,2.016,2.016,0,0,0-.571.569.182.182,0,0,1-.331-.1,1.632,1.632,0,0,1,.346-1.023,1.927,1.927,0,0,1,3.026,0A1.64,1.64,0,0,1,18.81,9.844Z"/><path class="c" d="M23,13.938a14.69,14.69,0,0,1-12.406,6.531c-5.542,0-6.563-1-9.142-2.529A7.66,7.66,0,0,0,8.656,23h6.688A7.656,7.656,0,0,0,23,15.344Z"/><path class="d" d="M7.127,12h9.746a1.937,1.937,0,0,1,1.937,1.937v0a1.938,1.938,0,0,1-1.937,1.938H7.127a1.937,1.937,0,0,1-1.937-1.937v0A1.937,1.937,0,0,1,7.127,12Z"/><ellipse class="e" cx="12" cy="13.938" rx="6.188" ry="0.25"/><ellipse class="e" cx="7.257" cy="13.938" rx="0.208" ry="1.438"/><ellipse class="e" cx="9.628" cy="13.938" rx="0.208" ry="1.438"/><ellipse class="e" cx="12" cy="13.938" rx="0.208" ry="1.438"/><ellipse class="e" cx="14.372" cy="13.938" rx="0.208" ry="1.438"/><ellipse class="e" cx="16.743" cy="13.938" rx="0.208" ry="1.438"/></svg>